<?xml version="1.0" encoding="utf-8"?>
<!-- Generator: Adobe Illustrator 27.5.0, SVG Export Plug-In . SVG Version: 6.00 Build 0)  -->
<svg version="1.1" id="NetComBW_x5F_Logo" xmlns="http://www.w3.org/2000/svg" xmlns:xlink="http://www.w3.org/1999/xlink" x="0px"
	 y="0px" width="1456.56px" height="270px" viewBox="0 0 1456.56 270" style="enable-background:new 0 0 1456.56 270;"
	 xml:space="preserve">
<style type="text/css">
	.st0{fill:#000099;}
	.st1{fill:#FE8F11;}
</style>
<g>
	<g>
		<g>
			<path class="st0" d="M74.594,88.781c-7.835,0-14.187-6.352-14.187-14.187V14.187C60.406,6.352,66.758,0,74.594,0
				s14.187,6.352,14.187,14.187l0,46.219l167.032,0.001c7.835,0,14.187,6.352,14.187,14.187s-6.352,14.187-14.187,14.187H74.594z"/>
		</g>
		<g>
			<path class="st0" d="M135,181.219c-7.835,0-14.187,6.352-14.187,14.187v60.406c0,7.835,6.352,14.187,14.187,14.187
				s14.187-6.352,14.187-14.187l0-46.219l106.626-0.001c7.835,0,14.187-6.352,14.187-14.187s-6.352-14.187-14.187-14.187H135z"/>
		</g>
		<path class="st1" d="M255.813,149.187H14.187C6.352,149.187,0,142.835,0,135s6.352-14.187,14.187-14.187h241.626
			c7.835,0,14.187,6.352,14.187,14.187S263.648,149.187,255.813,149.187z"/>
	</g>
	<g>
		<path class="st0" d="M454.038,211.607l-70.797-107.809v107.809H360V58.393h21.304l70.797,107.593V58.393h23.24v153.213H454.038z"
			/>
		<path class="st0" d="M518.375,163.405c0,9.469,2.367,16.929,7.101,22.38c4.734,5.454,11.62,8.178,20.658,8.178
			c6.167,0,11.153-0.895,14.956-2.69c3.799-1.792,7.639-4.627,11.512-8.5l13.987,13.126c-2.872,2.871-5.703,5.346-8.5,7.424
			c-2.798,2.081-5.81,3.839-9.038,5.272c-3.228,1.436-6.745,2.512-10.544,3.228c-3.802,0.716-8.069,1.075-12.803,1.075
			c-6.886,0-13.308-0.968-19.259-2.905c-5.955-1.936-11.119-5.09-15.493-9.468c-4.378-4.375-7.854-10.147-10.436-17.323
			c-2.583-7.172-3.874-15.924-3.874-26.253c0-17.931,4.196-31.703,12.588-41.316c8.392-9.609,19.616-14.417,33.677-14.417
			c7.316,0,13.843,1.258,19.582,3.766c5.736,2.512,10.578,6.099,14.525,10.76c3.944,4.664,6.956,10.258,9.038,16.784
			c2.078,6.53,3.12,13.738,3.12,21.627v9.252H518.375z M567.438,148.127c-0.289-3.298-0.575-5.988-0.861-8.069
			c-0.289-2.078-1.006-4.337-2.152-6.778c-1.866-4.159-4.626-7.495-8.285-10.007c-3.658-2.508-8.069-3.765-13.234-3.765
			c-5.309,0-9.791,1.257-13.449,3.765c-3.658,2.512-6.422,5.847-8.285,10.007c-1.15,2.442-1.866,4.701-2.152,6.778
			c-0.289,2.082-0.505,4.771-0.646,8.069H567.438z"/>
		<path class="st0" d="M646.408,211.607c-5.164,0-9.613-0.861-13.342-2.582c-3.732-1.721-6.815-3.981-9.253-6.778
			c-2.441-2.798-4.27-6.025-5.487-9.684c-1.221-3.658-1.829-7.423-1.829-11.297v-61.974h-12.481v-16.784h12.481V71.305h21.949
			v31.202h21.088v16.784h-21.088v60.898c0,4.018,0.969,7.138,2.905,9.361c1.937,2.226,4.983,3.336,9.146,3.336h9.038v18.721H646.408
			z"/>
		<path class="st0" d="M791.013,165.772c-2.727,15.208-9.004,26.865-18.829,34.968c-9.828,8.106-21.771,12.157-35.828,12.157
			c-8.467,0-15.924-1.324-22.38-3.981c-6.456-2.653-12.195-6.49-17.215-11.512c-3.732-3.729-6.637-7.602-8.715-11.621
			c-2.081-4.015-3.625-8.426-4.626-13.234c-1.006-4.805-1.614-10.255-1.83-16.355c-0.215-6.095-0.323-13.16-0.323-21.196
			c0-8.032,0.108-15.097,0.323-21.196c0.216-6.095,0.824-11.546,1.83-16.354c1.001-4.805,2.545-9.216,4.626-13.235
			c2.078-4.015,4.983-7.888,8.715-11.62c5.02-5.02,10.759-8.856,17.215-11.512c6.455-2.653,13.913-3.982,22.38-3.982
			c14.202,0,26.179,4.056,35.936,12.158c9.754,8.107,15.994,19.763,18.721,34.968h-23.671c-1.721-7.889-5.165-14.273-10.329-19.152
			c-5.165-4.875-12.051-7.316-20.658-7.316c-9.183,0-16.715,3.157-22.595,9.468c-2.01,2.011-3.587,4.233-4.734,6.671
			c-1.15,2.441-2.082,5.417-2.797,8.93c-0.72,3.517-1.183,7.855-1.399,13.019c-0.215,5.164-0.323,11.549-0.323,19.151
			c0,7.606,0.108,13.987,0.323,19.152c0.216,5.164,0.679,9.505,1.399,13.018c0.716,3.517,1.648,6.492,2.797,8.93
			c1.147,2.442,2.724,4.664,4.734,6.671c5.881,6.315,13.412,9.468,22.595,9.468c8.607,0,15.527-2.437,20.766-7.316
			c5.235-4.875,8.785-11.261,10.652-19.151H791.013z"/>
		<path class="st0" d="M901.832,156.949c0,9.327-0.861,17.467-2.583,24.424c-1.721,6.96-5.164,13.163-10.329,18.614
			c-3.587,3.732-8.069,6.815-13.449,9.253c-5.379,2.438-11.801,3.658-19.259,3.658c-7.461,0-13.847-1.22-19.152-3.658
			c-5.309-2.438-9.757-5.521-13.342-9.253c-5.164-5.45-8.607-11.654-10.329-18.614c-1.721-6.957-2.582-15.097-2.582-24.424
			c0-9.179,0.861-17.248,2.582-24.208c1.722-6.957,5.165-13.161,10.329-18.614c3.584-3.729,8.032-6.813,13.342-9.253
			c5.305-2.438,11.69-3.659,19.152-3.659c7.458,0,13.879,1.221,19.259,3.659c5.38,2.441,9.862,5.524,13.449,9.253
			c5.164,5.453,8.607,11.657,10.329,18.614C900.972,139.701,901.832,147.77,901.832,156.949z M879.883,156.949
			c0-6.025-0.43-11.691-1.291-17c-0.861-5.306-2.942-9.609-6.24-12.912c-4.163-4.159-9.542-6.24-16.139-6.24
			c-6.456,0-11.765,2.081-15.924,6.24c-3.301,3.302-5.379,7.606-6.241,12.912c-0.861,5.309-1.291,10.975-1.291,17
			s0.43,11.694,1.291,17c0.861,5.309,2.939,9.613,6.241,12.912c4.304,4.304,9.609,6.455,15.924,6.455
			c6.455,0,11.835-2.152,16.139-6.455c3.298-3.298,5.379-7.603,6.24-12.912C879.453,168.643,879.883,162.974,879.883,156.949z"/>
		<path class="st0" d="M1055.042,211.607v-66.493c0-8.463-2.118-14.632-6.348-18.506c-4.233-3.873-9.435-5.809-15.601-5.809
			c-3.013,0-5.884,0.467-8.608,1.398c-2.727,0.935-5.131,2.367-7.209,4.304c-2.082,1.937-3.732,4.378-4.95,7.316
			c-1.22,2.942-1.829,6.348-1.829,10.222v67.568h-21.949v-66.493c0-8.463-2.118-14.632-6.348-18.506
			c-4.233-3.873-9.435-5.809-15.601-5.809c-6.169,0-11.479,1.973-15.923,5.918c-4.448,3.947-6.671,10.08-6.671,18.398v66.493
			h-21.949V102.508h21.519v10.974c3.729-4.014,8.14-7.064,13.234-9.145c5.091-2.079,10.363-3.121,15.816-3.121
			c13.772,0,24.101,5.31,30.987,15.924c8.749-10.615,20.154-15.924,34.214-15.924c5.595,0,10.759,0.861,15.493,2.582
			c4.734,1.722,8.749,4.163,12.051,7.317c4.159,4.162,7.135,8.789,8.931,13.88c1.792,5.093,2.689,10.726,2.689,16.891v69.721
			H1055.042z"/>
		<path class="st0" d="M1260.31,168.354c0,7.03-1.15,13.234-3.443,18.614c-2.297,5.38-5.487,9.898-9.576,13.557
			c-4.089,3.659-8.967,6.422-14.633,8.284c-5.669,1.867-11.872,2.798-18.614,2.798h-61.974V58.393h59.607
			c14.343,0,25.641,3.733,33.892,11.19c8.248,7.461,12.373,17.719,12.373,30.771c0,4.163-0.612,7.999-1.829,11.513
			c-1.221,3.517-2.798,6.67-4.734,9.468c-1.937,2.797-4.125,5.164-6.563,7.101c-2.441,1.936-4.95,3.409-7.532,4.411
			c3.013,1.151,5.881,2.764,8.608,4.842c2.723,2.081,5.165,4.555,7.317,7.423c2.152,2.871,3.873,6.241,5.164,10.114
			C1259.665,159.101,1260.31,163.479,1260.31,168.354z M1234.703,101.216c0-7.172-2.296-12.622-6.886-16.354
			c-4.593-3.729-10.618-5.595-18.076-5.595h-34.43v43.897h34.43c7.458,0,13.483-1.862,18.076-5.595
			C1232.407,113.841,1234.703,108.391,1234.703,101.216z M1237.071,167.278c0-6.886-2.152-12.48-6.456-16.784
			s-10.544-6.455-18.722-6.455h-36.581v46.695h36.581c8.177,0,14.417-2.186,18.722-6.564
			C1234.919,179.796,1237.071,174.165,1237.071,167.278z"/>
		<path class="st0" d="M1416.535,211.607h-20.227l-31.202-107.378l-30.987,107.378h-20.228l-40.025-153.213h24.531l26.683,109.53
			l30.772-109.53h18.721l30.772,109.53l26.683-109.53h24.531L1416.535,211.607z"/>
	</g>
</g>
</svg>
